<?xml version="1.0" standalone="no"?><!DOCTYPE svg PUBLIC "-//W3C//DTD SVG 1.1//EN" "http://www.w3.org/Graphics/SVG/1.1/DTD/svg11.dtd"><svg t="1665739253380" class="icon" viewBox="0 0 1024 1024" version="1.1" xmlns="http://www.w3.org/2000/svg" p-id="12630" xmlns:xlink="http://www.w3.org/1999/xlink" width="200" height="200"><path d="M681.802 337.623c-3.21-27.06-18.326-42.176-45.386-45.386-15.937 1.605-27.881 7.987-35.831 19.11L512.203 437.95 423.82 311.347c-9.555-11.123-21.499-17.505-35.831-19.11-28.665 3.21-43.818 18.326-45.386 45.386-1.605 11.16 1.568 19.931 9.555 26.276l76.439 107.493h-50.163c-17.542 3.21-27.097 11.944-28.665 26.276 0 17.542 9.555 26.275 28.665 26.275h88.383v40.608h-88.383c-17.542 3.21-27.097 11.943-28.665 26.276 0 17.542 9.555 26.275 28.665 26.275h88.383v74.051c0 27.098 15.116 40.608 45.386 40.608 28.664 0 43.78-13.511 45.385-40.608v-74.051h88.383c17.505 0 27.061-8.733 28.665-26.275-3.21-14.333-12.765-23.066-28.665-26.276h-88.383v-40.608h88.383c17.505 0 27.061-8.733 28.665-26.275-3.21-14.333-12.765-23.066-28.665-26.276h-50.163l76.439-107.493c6.345-6.345 9.555-15.116 9.555-26.276z" fill="#e6e6e6" p-id="12631"></path><path d="M123.343 377.311c20.089 9.187 43.824 0.349 53.013-19.741 72.857-159.313 249.719-245.832 420.541-205.722 130.918 30.745 233.396 129.241 270.419 256.268l-70.823 0.263L911.18 605.284l113.212-197.752-74.456 0.277c-17.917-75.422-54.947-144.855-108.073-202.148-60.847-65.619-139.23-111.158-226.677-131.694-51.845-12.174-104.716-15.107-157.139-8.718-50.648 6.172-99.595 20.861-145.48 43.658-92.174 45.793-166.386 122.287-208.965 215.391-9.188 20.09-0.35 43.825 19.741 53.013zM901.3 646.514c-20.083-9.213-43.824-0.401-53.036 19.678-72.951 159.013-249.737 245.355-420.354 205.313-130.924-30.742-233.406-129.242-270.43-256.276l70.824-0.26-114.676-196.913L0.403 615.803l74.457-0.272c17.917 75.428 54.949 144.866 108.08 202.163 60.85 65.621 139.235 111.159 226.687 131.693 34.045 7.99 68.529 11.998 103.043 11.998 18 0 36.009-1.091 53.964-3.273 50.607-6.154 99.52-20.81 145.378-43.559 92.109-45.693 166.322-122.051 208.966-215.004 9.21-20.078 0.401-43.824-19.678-53.035z" fill="#e6e6e6" p-id="12632"></path></svg>